<?xml version="1.0" ?><svg enable-background="new 0 0 32 32" version="1.1" viewBox="0 0 32 32" xml:space="preserve" xmlns="http://www.w3.org/2000/svg" xmlns:xlink="http://www.w3.org/1999/xlink"><g id="Glyph"><g><g><path d="M16,3.006C8.835,3.006,3.007,8.835,3.007,16c0,7.165,5.829,12.994,12.993,12.994S28.994,23.165,28.994,16     C28.994,8.835,23.165,3.006,16,3.006z M17.953,18.831c0.319,0.276,0.566,1.251,0.566,1.699v3.964h-2.262h-2.265     c0,0,0.006-1.344,0-2.265c-3.099,0.667-3.964-1.699-3.964-1.699c-0.566-1.132-1.132-1.699-1.132-1.699     c-1.132-0.673,0-0.566,0-0.566c1.132,0,1.699,1.132,1.699,1.132c0.994,1.687,2.762,1.416,3.397,1.132     c0-0.566,0.248-1.422,0.566-1.699c-2.473-0.279-4.532-1.699-4.532-4.53c0-2.831,0.568-3.397,1.135-3.964     c-0.114-0.279-0.588-1.311,0.018-2.831c0,0,1.113,0,2.245,1.699c0.561-0.561,2.265-0.566,2.832-0.566     c0.565,0,2.269,0.005,2.83,0.566c1.132-1.699,2.248-1.699,2.248-1.699c0.605,1.52,0.132,2.552,0.017,2.831     c0.566,0.566,1.132,1.132,1.132,3.964C22.483,17.132,20.427,18.553,17.953,18.831z" fill="#1A1718"/></g><g><path d="M16,0C7.163,0,0,7.163,0,16c0,8.837,7.164,16,16,16c8.837,0,16-7.163,16-16C32,7.163,24.837,0,16,0z      M16,29.493C8.548,29.493,2.507,23.452,2.507,16C2.507,8.548,8.548,2.506,16,2.506c7.453,0,13.494,6.041,13.494,13.493     C29.494,23.452,23.452,29.493,16,29.493z" fill="#1A1718"/></g></g></g></svg>